PathFileType	4	(X/Y/Z)	D:\TRACE\spotREDO_2-26-24\spot_Both_Motion_1_4-v60.trc
DataRate	CameraRate	NumFrames	NumMarkers	Units	OrigDataRate	OrigDataStartFrame	OrigNumFrames
100.00	100.00	      21	9	mm	100.00	1	      7000
Frame#	Time	front left toe			Front right toe			aft left toe			aft right toe			Arm			FL body			FR body			AL Body			AR Body			
		X1	Y1	Z1	X2	Y2	Z2	X3	Y3	Z3	X4	Y4	Z4	X5	Y5	Z5	X6	Y6	Z6	X7	Y7	Z7	X8	Y8	Z8	X9	Y9	Z9	

1	0.000	-204.59233	21.74074	-265.34140	293.06879	23.34350	-169.57280	-315.49008	23.03225	326.31900	179.12222	27.62737	418.63867	60.69939	811.55786	-347.33972	-25.57964	551.98853	-333.51642	128.36722	556.64374	-310.64136	-162.03389	575.00409	539.63245	-22.98763	580.29224	562.62732	
2	0.010	-204.50894	21.64358	-265.44455	293.12491	23.36934	-169.50888	-315.56378	22.93404	326.30856	179.06999	27.63253	418.70377	60.78869	811.59229	-347.20529	-25.39027	551.90973	-333.53879	128.47946	556.59827	-310.60794	-162.31288	574.51447	539.54651	-23.07947	579.99744	562.65430	
3	0.020	-204.49231	21.62601	-265.44635	293.09525	23.39638	-169.50105	-315.60062	22.91190	326.36774	179.01411	27.59831	418.75211	60.86976	811.68024	-347.11252	-25.29086	551.89191	-333.59851	128.64444	556.59064	-310.59952	-162.60172	574.00385	539.49384	-23.21672	579.11810	562.55505	
4	0.030	-204.52815	21.67104	-265.42426	293.00848	23.47523	-169.49004	-315.58713	22.88464	326.43976	178.92024	27.50866	418.85309	60.99773	811.67578	-346.97070	-25.24117	551.90930	-333.60547	128.95229	556.62952	-310.60391	-162.74176	573.62158	539.38739	-24.21151	578.67975	562.37384	
5	0.040	-204.56516	21.74844	-265.37305	293.03912	23.37114	-169.47156	-315.59308	22.86993	326.50256	178.99207	27.54227	418.89685	61.22374	811.63782	-346.86700	-25.08858	551.89648	-333.70383	129.18024	556.61426	-310.59775	-162.68259	573.06506	539.39282	-24.21076	578.25525	562.32074	
6	0.050	-204.56267	21.76745	-265.36090	293.03650	23.29795	-169.47253	-315.62735	22.88052	326.50854	179.08308	27.58513	418.95721	61.45715	811.54260	-346.65942	-24.91530	551.86749	-333.74850	129.30402	556.60889	-310.63321	-162.78281	572.55304	539.30804	-24.44224	578.13251	562.25757	
7	0.060	-204.50282	21.70834	-265.41327	293.12289	23.31829	-169.43394	-315.60693	22.84239	326.53116	178.97643	27.54758	418.96481	61.35993	811.62659	-346.59363	-24.78201	551.84454	-333.86487	129.42010	556.59344	-310.64841	-163.05666	571.90411	539.16858	-23.92160	577.28320	562.19043	
8	0.070	-204.45421	21.66471	-265.49612	293.10519	23.31286	-169.42419	-315.61316	22.77910	326.52963	179.02745	27.50512	419.06375	61.49574	811.64172	-346.49274	-24.60995	551.82721	-333.91907	129.61060	556.58752	-310.66992	-163.04784	571.49335	539.05402	-24.10110	576.70117	561.99475	
9	0.080	-204.45688	21.61027	-265.48776	293.09702	23.26347	-169.41437	-315.60110	22.76010	326.59344	178.98334	27.56122	419.07150	61.62259	811.71442	-346.41721	-24.19692	551.80475	-333.73956	129.67188	556.60468	-310.71414	-163.18687	571.14337	538.90302	-24.08306	576.07501	561.98083	
10	0.090	-204.46251	21.66909	-265.46759	293.03787	23.25666	-169.46880	-315.63400	22.80495	326.60364	178.79062	27.45349	419.07004	61.76913	811.77380	-346.39325	-24.17059	552.01965	-334.06131	129.76532	556.61566	-310.77365	-163.29797	570.63104	538.67926	-24.75153	575.91248	561.73358	
11	0.100	-204.46877	21.69693	-265.44330	293.00027	23.28936	-169.43930	-315.72736	22.90807	326.63934	178.84676	27.48316	419.14075	61.91674	811.81140	-346.34595	-24.17794	552.22198	-334.44022	129.92683	556.64331	-310.84470	-163.18143	570.13623	538.55981	-25.00356	575.54791	561.65100	
12	0.110	-204.44984	21.69059	-265.50677	293.04068	23.31962	-169.46179	-315.62341	22.86721	326.62842	178.91185	27.50837	419.17883	62.11469	811.81775	-346.39267	-23.97851	552.24103	-334.64078	130.05138	556.56818	-310.96854	-163.28738	569.76752	538.43726	-25.17954	575.09119	561.54456	
13	0.120	-204.44682	21.67893	-265.51956	293.07587	23.31009	-169.39136	-315.56314	22.86090	326.55161	178.96356	27.59489	419.19699	62.45661	811.78052	-346.35800	-23.86943	552.21368	-334.67529	130.20566	556.41815	-311.16818	-163.49506	569.49774	538.20465	-25.13690	574.69470	561.46527	
14	0.130	-204.42490	21.64650	-265.53912	293.06314	23.31772	-169.41217	-315.52490	22.86359	326.54230	178.97197	27.50872	419.26196	62.62337	811.75964	-346.50922	-23.59254	552.12305	-334.65320	130.31120	556.35461	-311.27893	-163.66226	569.17847	537.90826	-24.54078	574.35406	561.37915	
15	0.140	-204.41754	21.66187	-265.52618	293.13232	23.31217	-169.38026	-315.53802	22.79710	326.59088	178.94588	27.51851	419.35074	62.91846	811.70453	-346.59341	-23.59776	552.15918	-334.98520	130.49850	556.26514	-311.32590	-163.65062	568.93683	537.81476	-24.62939	573.97693	561.34784	
16	0.150	-204.38499	21.69405	-265.55139	293.08908	23.24488	-169.36383	-315.63266	22.85494	326.57706	178.92807	27.52971	419.29510	63.11884	811.67487	-346.75452	-23.31872	552.16278	-335.14630	130.71376	556.23181	-311.40967	-163.59105	568.60516	537.64020	-24.81692	573.67566	561.20477	
17	0.160	-204.34990	21.81722	-265.53909	293.10257	22.93435	-169.66541	-315.61304	22.93686	326.54132	178.90680	27.56271	419.35501	63.38043	811.71289	-346.84949	-23.09413	552.07166	-335.23129	130.89128	556.30542	-311.56277	-163.68355	568.34711	537.52332	-24.94037	573.49512	560.96558	
18	0.170	-204.31500	21.79003	-265.59140	293.17838	22.97253	-169.63963	-315.62326	22.89384	326.47501	178.85294	27.52933	419.34802	63.61680	811.63403	-346.91339	-22.84366	551.93103	-335.37061	131.02798	556.28015	-311.68204	-163.95610	568.04480	537.14624	-25.26132	573.15619	560.69067	
19	0.180	-204.27766	21.73055	-265.63828	293.17523	23.12457	-169.52341	-315.71771	22.91829	326.44830	178.89467	27.61648	419.31604	63.73113	811.52960	-346.99573	-22.68631	551.82965	-335.48657	131.30070	556.17523	-311.77832	-165.12068	568.45123	536.97717	-25.36390	572.99335	560.56085	
20	0.190	-204.23831	21.67999	-265.63589	293.06543	22.97147	-169.65828	-315.66052	22.81083	326.47708	178.84911	27.59316	419.29977	63.91467	811.40430	-347.09491	-22.45775	551.61749	-335.74780	131.52055	556.08112	-311.92102	-165.01395	568.37952	536.85956	-25.43829	572.87964	560.35889	
21	0.200	-204.27527	21.67249	-265.61008	293.09830	22.87825	-169.65952	-315.61566	22.80287	326.54266	178.85825	27.60731	419.36002	64.18686	811.14459	-347.24136	-22.45618	551.52032	-335.96866	131.72250	555.88770	-312.07364	-165.20271	568.27301	536.65894	-25.52358	572.76898	560.16931	
